<svg width="148" height="152" viewBox="0 0 148 152" fill="none" xmlns="http://www.w3.org/2000/svg">
<g clip-path="url(#clip0_73_542)">
<path d="M0 72.5951V66.2625L49.3375 109.329L0.644286 147.424C0.219894 146.461 0.000496763 145.421 0 144.369L0 72.6322V72.5951ZM101.599 65.1741C101.523 67.7692 101.107 70.3432 100.36 72.8301C99.7029 74.9968 98.6622 77.0285 97.2872 78.8288C96.0308 80.488 94.4066 81.8342 92.5418 82.7619C90.664 83.6655 88.6048 84.1308 86.5202 84.1224C85.6311 84.1285 84.7447 84.0247 83.8811 83.8132C83.0539 83.6122 82.2578 83.3002 81.5146 82.8856C80.7911 82.4868 80.1312 81.9824 79.557 81.389C79.2457 81.0739 78.9599 80.7348 78.702 80.3748C77.6736 81.5508 76.3968 82.4847 74.9636 83.1092C73.5303 83.7337 71.9762 84.0332 70.4131 83.9864C69.3531 83.9933 68.299 83.8304 67.2907 83.504C66.3106 83.1673 65.3936 82.6698 64.5773 82.0322C63.7498 81.3765 63.0343 80.5912 62.4586 79.7069C61.8253 78.7409 61.3292 77.692 60.9842 76.5901C60.235 74.0775 60.0032 71.4395 60.3027 68.8351C60.5794 66.3134 61.1877 63.8391 62.1117 61.4759C62.948 59.353 64.133 57.3842 65.6181 55.6504C66.9811 54.0413 68.6702 52.7388 70.5741 51.8286C72.4358 50.9812 74.4632 50.5586 76.509 50.5918C78.0425 50.5801 79.571 50.7672 81.0562 51.1483C82.4471 51.5138 83.7722 52.0939 84.9838 52.8676L87.0034 54.2157C87.1206 54.296 87.2144 54.4058 87.2754 54.5339C87.3363 54.6621 87.3622 54.8041 87.3504 54.9454L85.6281 73.4361C85.4227 74.3652 85.5498 75.3367 85.9874 76.1819C86.2183 76.4552 86.5134 76.6671 86.8464 76.7988C87.1794 76.9304 87.5398 76.9777 87.8955 76.9364C88.619 76.933 89.3209 76.6893 89.8903 76.2438C90.6494 75.6014 91.2619 74.8044 91.6869 73.9061C92.3006 72.7349 92.7548 71.487 93.0374 70.1956C93.3783 68.6381 93.5732 67.0522 93.6198 65.4585C93.8262 62.3845 93.5545 59.297 92.8144 56.306C92.1913 53.8553 91.0224 51.5766 89.3947 49.6394C87.8346 47.8154 85.8469 46.4047 83.6085 45.5331C81.0439 44.5693 78.3196 44.0993 75.5797 44.1479C73.7161 44.1363 71.8601 44.3861 70.0661 44.89C68.3505 45.3847 66.7179 46.1308 65.2216 47.1039C63.6817 48.1065 62.2961 49.3272 61.1081 50.7278C59.8578 52.2091 58.8004 53.8423 57.961 55.5886C57.0575 57.4721 56.3556 59.4454 55.8671 61.4759C55.356 63.6777 55.0491 65.9217 54.9502 68.1796C54.7378 71.3765 55.0093 74.5871 55.7555 77.7032C56.3675 80.2275 57.5405 82.582 59.1876 84.5924C60.7699 86.459 62.7984 87.8969 65.0853 88.7729C67.7673 89.7677 70.6128 90.2502 73.4734 90.1953C74.3675 90.1945 75.261 90.1449 76.1497 90.0469C77.0666 89.9479 78.0206 89.7871 78.9746 89.5892C79.9287 89.3913 80.8084 89.1811 81.6013 88.9461C82.3179 88.7369 83.0213 88.485 83.7077 88.1916C83.8036 88.1509 83.9067 88.1294 84.011 88.1285C84.1153 88.1276 84.2188 88.1473 84.3154 88.1863C84.4121 88.2254 84.5001 88.2831 84.5744 88.3562C84.6487 88.4292 84.7079 88.5162 84.7484 88.6121C84.7593 88.6818 84.7593 88.7527 84.7484 88.8224L85.9998 94.0171C86.0305 94.1758 86.0139 94.34 85.9523 94.4894C85.8907 94.6388 85.7866 94.767 85.6529 94.8582C84.8732 95.3571 84.0425 95.7717 83.1749 96.095C82.1798 96.4845 81.1568 96.7987 80.1145 97.035C78.9998 97.3028 77.8704 97.5051 76.732 97.641C75.6012 97.7744 74.4634 97.8405 73.3247 97.8389C68.0878 98.0021 62.8963 96.8226 58.246 94.4129C56.2083 93.3016 54.3701 91.8596 52.8067 90.1458C51.2261 88.3845 49.934 86.3851 48.9781 84.2214C47.9481 81.8711 47.2276 79.3974 46.8347 76.8622C46.3767 73.9464 46.2149 70.9918 46.3514 68.0435C46.4612 65.1794 46.8765 62.3351 47.5905 59.5588C48.2647 56.93 49.2461 54.3895 50.5145 51.9894C51.7165 49.73 53.2167 47.6417 54.975 45.7805C56.6993 43.9367 58.6766 42.346 60.8479 41.0558C63.0349 39.7614 65.3907 38.7749 67.8483 38.1245C70.3997 37.453 73.0279 37.1162 75.6665 37.1226C80.6352 36.9934 85.5502 38.1752 89.9151 40.5487C91.8922 41.665 93.6816 43.084 95.2181 44.7539C96.7354 46.4494 97.9884 48.3632 98.9351 50.431C99.9643 52.6338 100.698 54.9627 101.116 57.3573C101.569 59.9492 101.731 62.5834 101.599 65.2112V65.1741ZM69.7564 68.8846C69.6511 70.0324 69.6511 71.1875 69.7564 72.3354C69.8208 73.1465 70.0219 73.941 70.3511 74.6853C70.5745 75.1835 70.9301 75.6112 71.3795 75.9222C71.8212 76.1963 72.3341 76.3339 72.8539 76.318C73.2352 76.3172 73.6117 76.2327 73.9566 76.0706C74.3628 75.8611 74.7279 75.5804 75.0346 75.2419C75.4377 74.8052 75.7833 74.3189 76.063 73.7948C76.403 73.1689 76.689 72.5151 76.9179 71.8406L78.1569 58.2354H77.9463C77.641 58.2153 77.3347 58.2153 77.0294 58.2354C76.0655 58.2182 75.111 58.4257 74.2416 58.8415C73.4239 59.2585 72.7218 59.8702 72.1972 60.6225C71.5293 61.651 71.0276 62.7779 70.7104 63.962C70.2682 65.5823 69.9656 67.2375 69.8059 68.9093L69.7564 68.8846ZM0.185852 53.7828C1.23901 49.6642 7.08715 47.0173 10.3334 44.7168V27.0424C10.3334 25.0742 11.1166 23.1867 12.5108 21.795C13.9049 20.4032 15.7958 19.6214 17.7674 19.6214H45.608L72.1848 0.722527C72.8651 0.248028 73.6759 -0.00437252 74.5057 5.73274e-05C75.3356 0.00448718 76.1436 0.26553 76.8187 0.747263L102.937 19.6214H130.195C132.167 19.6214 134.058 20.4032 135.452 21.795C136.846 23.1867 137.629 25.0742 137.629 27.0424V44.6673C141.123 47.141 147.963 50.5052 147.963 55.1681V55.3536L130.233 70.307V27.0177H17.7674V69.0701L0.185852 53.7828ZM148 67.7714V144.369C148.003 146.145 147.38 147.865 146.241 149.229L97.0642 110.628L148 67.7714ZM134.371 152H10.2342L56.6352 115.699L70.4502 127.758C71.3373 128.535 72.4825 128.954 73.6622 128.933C74.842 128.912 75.9718 128.454 76.8311 127.647L89.6178 116.899L134.334 152H134.371Z" fill="white" fill-opacity="0.54"/>
</g>
<defs>
<clipPath id="clip0_73_542">
<rect width="148" height="152" fill="white"/>
</clipPath>
</defs>
</svg>
