<svg width="18" height="18" viewBox="0 0 18 18" fill="none" xmlns="http://www.w3.org/2000/svg">
<g clip-path="url(#clip0_73_439)">
<path d="M18 9C18 4.02928 13.9704 0 9 0C4.02963 0 0 4.02928 0 9C0 13.492 3.29132 17.2155 7.5937 17.8906V11.6017H5.30845V9H7.5937V7.01732C7.5937 4.76155 8.9375 3.51576 10.993 3.51576C11.9777 3.51576 13.0076 3.69333 13.0076 3.69333V5.9079H11.873C10.7547 5.9079 10.4063 6.60182 10.4063 7.3135V9.00178H12.9021L12.5033 11.6034H10.4052V17.8906C14.7087 17.2155 18 13.492 18 9Z" fill="#1877F2"/>
<path d="M12.5035 11.6015L12.9023 8.99986H10.4054V7.31158C10.4054 6.60133 10.7538 5.90599 11.8721 5.90599H13.0067V3.69319C13.0067 3.69319 11.9768 3.51562 10.9921 3.51562C8.93658 3.51562 7.59278 4.76141 7.59278 7.01718V8.99986H5.30859V11.6015H7.59384V17.8905C8.52571 18.0363 9.47459 18.0363 10.4065 17.8905V11.6015H12.5035Z" fill="white"/>
</g>
<defs>
<clipPath id="clip0_73_439">
<rect width="18" height="18" fill="white"/>
</clipPath>
</defs>
</svg>
