<svg width="96" height="102" viewBox="0 0 96 102" fill="none" xmlns="http://www.w3.org/2000/svg">
<g clip-path="url(#clip0_73_350)">
<path fill-rule="evenodd" clip-rule="evenodd" d="M59.721 54.7856C60.9582 53.1064 62.4669 51.6474 64.1846 50.4692C67.243 48.3608 70.913 47.1489 75.2609 46.377C75.5973 46.3191 75.9429 46.3976 76.2218 46.5952C76.5007 46.7929 76.6902 47.0935 76.7487 47.4312C76.7784 47.5975 76.7749 47.7681 76.7385 47.933C76.7021 48.098 76.6335 48.2541 76.5367 48.3923C76.4398 48.5304 76.3166 48.6479 76.1743 48.738C76.0319 48.8281 75.8732 48.8889 75.7072 48.917C71.6983 49.6309 68.3506 50.7183 65.6229 52.5942C63.2994 54.2223 61.4114 56.4005 60.126 58.936C70.5576 59.9819 76.7322 58.936 81.2206 55.6821C85.709 52.4282 88.6599 46.8086 92.5945 38.7236C91.4455 38.7983 90.2469 38.8564 89.0236 38.9062C81.1131 39.2798 72.4918 39.6782 67.0446 44.4595C65.5539 45.7918 64.1972 47.2682 62.9943 48.8672C61.7934 50.433 60.6892 52.0714 59.688 53.7729V54.7856H59.721ZM56.0262 28.2231C55.5633 28.2231 55.1004 28.1401 54.6458 28.082C54.1911 28.0239 53.6291 27.9326 53.1579 27.8496C52.6957 27.7706 52.2377 27.6681 51.7858 27.5425V23.5581C52.3644 23.6079 52.9843 23.6494 53.6539 23.6826C54.3234 23.7158 55.0012 23.7407 55.6873 23.7573H57.605C58.0737 23.7657 58.542 23.7239 59.0019 23.6328C59.3102 23.5785 59.5969 23.4375 59.8285 23.2261C59.9318 23.1108 60.011 22.976 60.0616 22.8296C60.1122 22.6831 60.1332 22.528 60.1231 22.3733C60.1131 22.2186 60.0724 22.0674 60.0033 21.9288C59.9343 21.7901 59.8383 21.6667 59.721 21.5659C59.4477 21.3741 59.1203 21.2752 58.787 21.2837H57.4479C55.8503 21.3976 54.2647 20.9355 52.9761 19.9805C50.7773 18.1045 50.9344 12.6509 53.1331 10.8496C53.9723 10.1889 54.9702 9.76222 56.0262 9.61279V7.5542H59.6384V9.52978L60.2087 9.57959C60.9113 9.65429 61.5726 9.7539 62.1925 9.86181C62.8125 9.96972 63.3663 10.0859 63.8457 10.2021V14.1118C63.0687 14.0454 62.1925 13.9873 61.2171 13.9458C60.2418 13.9043 59.3573 13.8794 58.5638 13.8794C58.1374 13.8752 57.7115 13.9086 57.2909 13.979C56.9804 14.0319 56.6927 14.1764 56.4643 14.394C56.2425 14.6586 56.1294 14.9981 56.1478 15.3434C56.1662 15.6888 56.3148 16.0141 56.5635 16.2534C56.9271 16.5026 57.3645 16.6197 57.8033 16.5854H59.4565C60.4851 16.5501 61.505 16.7847 62.4157 17.2661C63.1785 17.6829 63.8002 18.3187 64.2011 19.0923C65.1186 20.877 65.0277 24.4048 63.9532 26.0234C63.3948 26.8738 62.5446 27.4884 61.5643 27.75C60.9337 27.9241 60.2893 28.0435 59.6384 28.1069V30.3398H56.0262V28.165V28.2231ZM2.28965 64.5806H15.077C15.6836 64.585 16.2638 64.83 16.6912 65.2623C17.1185 65.6946 17.3584 66.279 17.3584 66.8882V93.3096C17.3562 93.9187 17.1143 94.5023 16.6853 94.933C16.2564 95.3637 15.6753 95.6067 15.0687 95.6089H2.28965C1.68307 95.6067 1.10195 95.3637 0.673029 94.933C0.244108 94.5023 0.00217806 93.9187 0 93.3096L0 66.8882C-3.93361e-06 66.2776 0.240962 65.6919 0.670119 65.2594C1.09928 64.8269 1.68164 64.5828 2.28965 64.5806ZM20.8631 92.9692V67.0708H32.4767C37.4362 67.959 42.3213 70.6401 47.2478 73.7114H56.2659C60.3492 73.9604 62.4818 78.1191 58.5225 80.8501C55.3566 83.1743 51.1824 83.0415 46.9502 82.6597C43.9993 82.5103 43.8671 86.4946 46.9502 86.5112C48.0165 86.5942 49.1738 86.3369 50.1905 86.3369C55.5302 86.3369 59.9277 85.3076 62.5893 81.0742L63.9366 77.9033L77.3604 71.2212C84.0723 69.0049 88.8417 76.0522 83.8987 80.958C74.544 87.823 64.5346 93.7399 54.0176 98.6221C46.5783 103.146 39.2134 102.997 31.8071 98.6221L20.8631 92.9692ZM58.1257 0.000486206C63.1502 -0.0259212 67.9889 1.90636 71.6233 5.39056C75.2577 8.87477 77.4041 13.6391 77.6108 18.6806C77.8176 23.7221 76.0684 28.6475 72.7316 32.42C69.3948 36.1925 64.7307 38.5177 59.721 38.9062V48.9751C60.1343 48.3857 60.5476 47.8213 60.9609 47.3149C62.2667 45.5851 63.7336 43.9841 65.3418 42.5337C71.4255 37.1631 80.5676 36.7231 88.9079 36.3496C90.8338 36.2583 92.7184 36.167 94.6113 36.0093C94.8387 35.994 95.0662 36.0368 95.2726 36.1338C95.5784 36.2824 95.8128 36.547 95.9245 36.8692C96.0361 37.1914 96.0157 37.5449 95.8677 37.8521C91.2802 47.3647 88.0399 53.8809 82.725 57.7739C77.6993 61.4263 70.9378 62.6216 59.721 61.4844V63.4434C66.2097 64.0825 72.219 64.896 75.5667 67.5938L63.5151 73.6284C63.0661 72.9194 62.5081 72.2862 61.8619 71.7524C60.4432 70.6032 58.7176 69.9014 56.9024 69.7354C56.7023 69.7089 56.5008 69.695 56.2989 69.6938H48.3802C45.6358 67.9428 42.7587 66.4107 39.7754 65.1118C43.9745 63.6592 49.5457 63.2856 55.15 63.2358V57.9399C51.9782 58.2836 48.7708 58.0588 45.6773 57.2759C43.8062 56.7529 42.0628 55.8474 40.5565 54.6161C39.0502 53.3848 37.8134 51.8543 36.9237 50.1206C36.9131 50.0941 36.8992 50.069 36.8824 50.0459L33.2702 42.5752C33.1802 42.3894 33.1276 42.1876 33.1155 41.9814C33.1033 41.7751 33.1319 41.5685 33.1994 41.3734C33.267 41.1783 33.3723 40.9985 33.5093 40.8443C33.6463 40.6901 33.8122 40.5647 33.9976 40.4751C34.238 40.3541 34.5062 40.2997 34.7746 40.3174L46.8758 41.0645H47.0742C49.3308 41.3467 51.8106 41.6621 54.0506 43.646C54.4215 43.9756 54.7747 44.3247 55.1087 44.6919C55.1087 42.3511 55.2574 40.7822 55.2822 38.79C50.406 38.1004 45.973 35.5752 42.8815 31.7259C39.7901 27.8767 38.2712 22.9912 38.6328 18.0593C38.9943 13.1275 41.2092 8.51805 44.8286 5.16488C48.448 1.81172 53.2014 -0.0344235 58.1257 0.000486206ZM58.1257 3.13818C61.8934 3.13626 65.5452 4.44643 68.4587 6.84542C71.3722 9.24441 73.3672 12.5838 74.1037 16.2944C74.8401 20.005 74.2725 23.8573 72.4974 27.1947C70.7224 30.5321 67.8499 33.1481 64.3693 34.5969C60.8888 36.0457 57.0157 36.2377 53.41 35.14C49.8043 34.0424 46.6893 31.7231 44.5957 28.5774C42.502 25.4318 41.5594 21.6543 41.9285 17.8889C42.2976 14.1235 43.9554 10.6031 46.6196 7.92773C48.1291 6.40804 49.9225 5.20265 51.8971 4.38074C53.8716 3.55882 55.9883 3.13656 58.1257 3.13818ZM55.15 54.7856V54.5366C54.7782 54.0716 54.341 53.6634 53.8522 53.3247C52.6525 52.5627 51.3159 52.0438 49.9177 51.7974C49.7355 51.7824 49.5585 51.7285 49.3988 51.6392C49.239 51.5499 49.1002 51.4273 48.9915 51.2797C48.8828 51.132 48.8069 50.9627 48.7688 50.7831C48.7307 50.6036 48.7313 50.4179 48.7706 50.2386C48.8099 50.0592 48.8869 49.8904 48.9966 49.7435C49.1062 49.5966 49.2459 49.4749 49.4062 49.3867C49.5665 49.2985 49.7438 49.2457 49.9261 49.232C50.1085 49.2183 50.2916 49.2439 50.4632 49.3071C52.1245 49.6105 53.7143 50.2243 55.15 51.1167V50.7847C55.0921 50.6187 55.026 50.4443 54.9599 50.2866C54.3231 48.6538 53.3154 47.1928 52.0172 46.02C50.488 44.667 48.5207 44.418 46.7188 44.1938H46.6775L37.2543 43.6128L39.7341 48.668C40.4323 50.0242 41.4009 51.2215 42.5798 52.1854C43.7587 53.1494 45.1226 53.8593 46.5865 54.271C49.388 54.9515 52.2877 55.1258 55.15 54.7856Z" fill="url(#paint0_linear_73_350)"/>
</g>
<defs>
<linearGradient id="paint0_linear_73_350" x1="47.9978" y1="0" x2="47.9978" y2="101.959" gradientUnits="userSpaceOnUse">
<stop stop-color="#FAE97F"/>
<stop offset="1" stop-color="#BEE1BC"/>
</linearGradient>
<clipPath id="clip0_73_350">
<rect width="96" height="102" fill="white"/>
</clipPath>
</defs>
</svg>
